<svg width="140" height="140" viewBox="0 0 140 140" fill="none" xmlns="http://www.w3.org/2000/svg">
<path id="Vector" opacity="0.5" d="M139.928 26.9131C139.428 19.3222 136.888 12.3407 133.277 5.71017C132.605 4.4779 131.697 4.01744 130.271 4.41212C123.809 6.20132 117.741 8.81935 112.353 12.8582C107.285 16.6559 103.442 21.3525 101.937 27.6718C100.998 31.6098 101.046 35.5697 101.656 39.5428C101.766 40.2664 101.981 40.9987 101.704 41.6521C100.638 40.6347 99.5809 39.6963 98.6069 38.6833C96.2816 36.2626 92.9734 34.868 91.0298 32.1886C89.051 29.4654 87.6251 26.3211 85.6683 23.5452C84.4091 21.7604 83.0929 20.015 81.7371 18.3004C80.943 17.2918 79.9119 17.2611 78.9028 18.0022C77.9595 18.6951 77.8411 19.7914 78.5475 20.8307C78.7932 21.1903 79.0871 21.5192 79.3547 21.8656C81.7898 25.0143 84.0186 28.2945 86.0763 31.9562C79.8944 30.7459 73.9055 29.5662 67.9079 28.4173C67.2673 28.2945 67.0655 27.8165 66.7627 27.4043C61.3267 20.0063 55.895 12.6082 50.4721 5.20147C50.2571 4.90766 49.9061 4.66647 49.95 4.22794C53.223 4.03498 57.8781 5.10061 61.7479 6.92928C64.9288 8.42906 67.8113 10.3805 70.5228 12.617C71.7864 13.6607 72.8569 13.6213 73.7081 12.6083C74.5724 11.5777 74.3881 10.5296 73.1509 9.47714C72.6331 9.03861 72.1023 8.61324 71.5626 8.19664C62.9105 1.46081 53.2493 -1.41157 42.3465 0.662684C29.7589 3.06144 19.2728 9.521 9.71255 17.7215C8.77363 18.5284 8.73853 19.537 9.29574 20.6246C13.9201 29.5969 19.6721 37.7141 27.3852 44.3272C28.1048 44.9411 28.0697 45.1954 27.3852 45.8182C15.0696 57.0401 9.49317 70.9898 11.6737 87.5048C14.0298 105.335 23.9586 117.812 40.3195 125.201C41.7761 125.859 42.8905 125.482 43.3776 124.289C43.8733 123.074 43.3951 122.074 41.9297 121.438C39.2972 120.294 36.7832 118.947 34.3833 117.373C33.6637 116.904 33.4663 116.422 33.5716 115.593C34.1288 111.282 33.5716 107.015 31.3822 103.336C29.6185 100.376 29.9826 97.9243 31.448 95.2318C31.8429 94.5082 32.1676 93.7495 32.5186 93.004C33.5979 90.7281 34.743 88.4784 35.3748 86.0182C36.1821 82.8608 35.0677 80.3086 32.1456 78.879C30.9786 78.3089 29.7413 77.787 28.4821 77.5064C26.4025 77.0459 25.1301 75.8136 24.1298 74.0069C22.4669 70.9986 21.0805 67.8236 18.9789 65.0696C18.6849 64.6837 18.777 64.368 18.9394 64.0084C21.7605 57.7506 25.8102 52.4268 31.0883 48.0327C31.4919 47.6951 31.7727 47.6688 32.2115 47.9626C37.1737 51.2779 42.601 53.3784 48.8487 54.0494C48.2608 54.5405 47.923 54.8036 47.6027 55.0887C44.2858 58.04 41.8463 61.4868 41.2321 66.03C40.2493 73.3052 45.2949 79.5938 52.5912 80.0893C55.8687 80.313 59.0847 79.7472 62.2963 79.221C66.6794 78.5018 66.9821 78.7693 67.3945 83.2292C67.8508 88.1802 67.491 93.14 67.6753 98.0954C67.7718 100.67 67.9561 103.244 68.8336 105.695C70.1893 109.484 73.4536 111.378 77.2751 110.146C84.3038 107.883 88.7746 103.011 90.7358 95.8895C91.4466 93.3022 90.4945 90.7851 90.2313 88.2416C89.832 84.3913 89.7092 80.6506 92.833 77.6555C95.1979 75.3839 97.9488 73.7043 100.823 72.1475C101.906 75.7522 102.2 81.8917 101.551 86.9918C99.3572 104.226 87.0153 118.496 70.2859 123.144C65.0297 124.605 59.677 124.986 54.2541 124.561C52.6175 124.434 51.7576 125.039 51.626 126.359C51.4987 127.652 52.2797 128.507 53.8724 128.63C57.4174 128.907 60.9537 128.885 64.4988 128.464C86.3089 125.872 103.977 107.971 105.776 86.1103C107.272 67.9595 100.375 53.4354 85.7385 42.5906C85.3612 42.3099 84.8522 42.1652 84.6767 41.6653C86.1773 40.49 87.7304 39.3937 89.1344 38.1263C90.0163 37.3282 90.5559 37.2887 91.5387 38.0342C109.523 51.6638 117.249 75.1339 110.839 96.8412C100.967 130.275 62.4586 145.983 32.014 128.994C12.1959 117.939 1.30617 95.5826 4.81175 73.1517C5.06184 71.5423 4.53534 70.5951 3.2542 70.3627C1.83266 70.104 1.0517 70.7618 0.770898 72.4589C-0.470754 79.9402 -0.211894 87.3864 1.54309 94.7406C9.01933 126.06 39.6219 145.378 71.0581 138.673C106.355 131.143 126.59 92.9339 112.906 59.5836C112.384 58.3075 112.651 57.9523 113.893 57.5576C119.904 55.6412 125.485 52.8785 130.377 48.8309C137.265 43.1343 140.52 35.8416 139.932 26.9131H139.928ZM20.6593 76.1645C22.0545 78.8614 24.1122 80.6638 27.1045 81.3786C27.9951 81.5891 28.8638 81.9224 29.7106 82.2776C31.5841 83.0625 31.821 83.6063 31.2418 85.5315C30.553 87.8162 29.4342 89.9168 28.4119 92.0568C27.5344 93.8942 26.6482 95.7229 26.1041 97.6963C25.5645 99.6565 25.6785 101.49 26.7929 103.279C28.7015 106.335 29.5834 109.703 29.6185 113.378C18.4699 104.244 12.1344 85.9612 17.0089 69.4988C18.2988 71.8405 19.5273 73.9806 20.6593 76.1688V76.1645ZM34.4271 7.11785C37.4369 6.00837 40.495 5.10938 43.654 4.55245C44.2858 4.43843 44.8035 4.38142 45.2905 5.05237C50.5072 12.2355 55.7677 19.3879 61.0108 26.5491C61.0897 26.6544 61.1204 26.7947 61.2521 27.0973C57.6105 26.4 54.1268 25.4791 50.5862 25.1151C46.6945 24.7161 44.1278 22.9356 42.0745 19.6379C39.6658 15.7788 36.7656 12.2267 34.0366 8.57377C33.4575 7.80196 33.4049 7.49499 34.4315 7.11785H34.4271ZM28.8419 9.63063C29.3289 9.38067 29.6009 9.40259 29.9256 9.84989C33.0363 14.1212 36.1646 18.3837 39.4376 22.8611C31.391 21.2955 23.5857 19.7738 15.5479 18.2083C19.8607 14.7965 24.2043 11.9943 28.8419 9.63063ZM26.5078 35.8109C25.6083 36.495 25.1345 36.5739 24.3272 35.6267C21.2647 32.0395 18.4655 28.2726 16.0217 24.2425C15.6795 23.6811 15.4821 23.0058 14.8854 22.6155C14.8854 22.6155 14.8854 22.6155 14.8898 22.6155C14.9731 22.5892 15.0609 22.5629 15.1398 22.5322C15.153 22.5278 15.1398 22.4752 15.1442 22.4445C15.0609 22.5015 14.9731 22.5585 14.8898 22.6155C14.8898 22.6155 14.8854 22.6155 14.881 22.6155C15.3417 22.0191 15.8901 22.484 16.342 22.5717C23.4848 23.9223 30.6188 25.3169 37.7572 26.707C37.9415 26.7421 38.1126 26.8386 38.4724 26.9745C37.6958 27.5578 37.0289 28.0708 36.3488 28.5664C33.0626 30.9783 29.7501 33.3507 26.5078 35.8153V35.8109ZM38.2398 46.7829C34.5982 44.8841 31.3252 42.4897 28.2364 39.5998C33.4049 35.8109 38.4548 32.1141 43.496 28.3997C43.926 28.084 44.3472 27.9919 44.8517 28.0928C50.086 29.1233 55.3202 30.1495 60.5501 31.1844C60.6378 31.2019 60.7168 31.2809 60.9318 31.408C59.0715 32.7806 57.2595 34.1182 55.4431 35.4513C50.3931 39.1525 45.33 42.8318 40.3019 46.5593C39.5956 47.0811 39.0735 47.2127 38.2486 46.7829H38.2398ZM99.4055 66.7974C99.7828 67.7929 99.5809 68.2183 98.6596 68.6656C96.83 69.5602 95.1496 70.7223 93.4341 71.8274C87.2039 75.8443 85.0014 81.5321 86.1334 88.7415C86.4712 90.8772 87.2829 93.0347 86.6643 95.2142C85.1725 100.459 81.8161 104.094 76.7398 106.05C74.5198 106.905 73.2298 106.156 72.5673 103.84C71.8127 101.2 71.7469 98.4769 71.7381 95.7536C71.7337 94.4424 71.7381 93.1312 71.7381 91.8156C71.7162 88.0793 71.8873 84.3299 71.1765 80.6243C70.9747 79.5675 70.6895 78.5413 70.1937 77.5941C69.1232 75.5549 67.4735 74.4323 65.1043 74.7173C62.5508 75.0243 60.006 75.4277 57.4569 75.7785C56.0091 75.9803 54.5524 76.0811 53.0958 76.0066C48.0765 75.7566 44.6762 71.6344 45.3124 66.6089C45.7468 63.1752 47.6773 60.6317 50.1035 58.3601C51.8892 56.6893 54.0917 55.593 55.952 54.0318C56.4829 53.5845 57.163 53.738 57.7728 53.6371C65.6527 52.3303 72.7999 49.1817 79.5215 44.9849C80.4341 44.4149 81.0702 44.3973 81.9741 44.9937C90.1523 50.3789 95.9437 57.6409 99.4055 66.7974ZM74.7391 43.051C68.6757 46.4277 62.3402 49.0282 55.3729 49.8044C51.5953 50.2254 47.844 50.0807 43.9567 48.9668C45.5274 47.8091 46.9621 46.7435 48.4012 45.691C54.1575 41.4723 59.9183 37.2624 65.6702 33.035C66.1924 32.6535 66.6574 32.329 67.377 32.4693C73.1333 33.6226 78.8897 34.7453 84.6504 35.8811C84.7864 35.9074 84.9093 35.9775 85.1725 36.074C81.8337 38.714 78.3807 41.0206 74.7391 43.051ZM112.774 17.8005C117.056 14.0554 122.014 11.5426 127.643 9.52538C124.383 17.3137 121.268 24.7468 118.057 32.4123C116.148 27.7726 114.362 23.3961 112.533 19.0415C112.309 18.5065 112.327 18.1951 112.774 17.8005ZM110.041 51.5103C110.006 51.5892 109.905 51.6418 109.834 51.7076C104.517 40.9549 103.429 28.5839 109.264 21.8656C111.401 27.0403 113.511 32.1667 115.639 37.2887C115.784 37.6352 115.762 37.9071 115.617 38.2491C113.748 42.6651 111.901 47.0855 110.041 51.5059V51.5103ZM135.339 33.9647C134.681 36.9555 133.364 39.6393 131.408 41.9854C126.796 47.524 120.689 50.7341 113.774 53.3126C115.551 49.0501 117.293 45.1297 118.811 41.1215C119.518 39.2621 120.575 38.1395 122.457 37.4422C126.314 36.0082 130.083 34.3374 133.9 32.7894C134.316 32.6228 134.812 32.1404 135.225 32.5614C135.558 32.899 135.44 33.4823 135.334 33.9603L135.339 33.9647ZM135.023 27.8823C130.899 29.5618 126.779 31.2589 122.659 32.9473C122.615 32.8684 122.562 32.7982 122.497 32.7368C124.287 28.3515 126.068 23.9574 127.876 19.5809C129.016 16.8181 130.197 14.0686 131.425 11.1523C133.808 16.2612 135.374 21.4183 135.835 26.8912C135.892 27.5578 135.501 27.6893 135.023 27.8823Z" fill="white"/>
</svg>
