<svg width="115" height="140" viewBox="0 0 115 140" fill="none" xmlns="http://www.w3.org/2000/svg">
<g id="Group" opacity="0.5">
<path id="Vector" d="M57.8247 0C59.3422 0.979701 59.9827 4.57308 58.9037 6.02893C57.9857 7.26212 56.0434 7.05659 55.4234 5.65897C54.7451 4.13119 55.2795 1.20579 56.4579 0L57.8247 0Z" fill="white"/>
<path id="Vector_2" d="M57.1419 139.988C42.926 139.988 28.71 139.988 14.4941 139.988C14.131 139.988 13.7645 140.002 13.4014 139.985C12.0311 139.916 11.12 139.087 11.12 137.929C11.12 136.765 12.0277 135.894 13.3945 135.884C16.8577 135.853 20.3209 135.874 23.7841 135.874C26.5622 135.874 29.3438 135.846 32.1219 135.891C32.9303 135.905 33.2523 135.74 33.2078 134.853C33.129 133.353 33.1804 131.845 33.1872 130.345C33.1975 128.3 33.8381 127.635 35.8591 127.629C40.5076 127.615 45.156 127.591 49.801 127.649C50.8355 127.663 51.1061 127.389 51.0822 126.365C51.0102 123.405 50.9999 120.442 51.0822 117.482C51.1164 116.318 50.8663 115.961 49.6126 115.965C34.3039 116.016 18.9952 115.999 3.68314 115.999C3.32003 115.999 2.9535 116.006 2.5904 115.999C0.826249 115.951 0.21308 115.252 0.0897612 113.498C-0.331579 107.521 0.798845 101.742 2.05259 95.9459C5.10473 81.8636 8.03699 67.7539 11.0206 53.6544C11.4385 51.6744 11.9489 51.2599 14.0008 51.2565C19.879 51.2462 25.7572 51.2565 31.6354 51.2565C54.4632 51.2565 77.2909 51.2565 100.119 51.2565C102.715 51.2565 103.095 51.5306 103.626 54.0415C107.206 70.9876 110.84 87.9234 114.283 104.897C114.903 107.949 114.485 111.169 114.365 114.307C114.331 115.245 113.629 115.848 112.646 115.954C112.149 116.009 111.645 116.002 111.145 116.002C95.7442 116.002 80.343 116.023 64.9453 115.972C63.7087 115.968 63.4346 116.3 63.4689 117.482C63.5579 120.486 63.5305 123.497 63.4791 126.502C63.462 127.392 63.6984 127.659 64.613 127.653C69.2614 127.605 73.9064 127.625 78.5549 127.636C80.7609 127.639 81.3638 128.259 81.3741 130.482C81.3775 131.893 81.4426 133.312 81.3535 134.719C81.2919 135.709 81.6379 135.912 82.5696 135.905C88.4923 135.864 94.4151 135.881 100.338 135.884C100.793 135.884 101.259 135.853 101.701 135.936C102.794 136.138 103.397 136.891 103.411 137.939C103.424 138.929 102.842 139.669 101.831 139.909C101.352 140.022 100.838 139.998 100.338 139.998C85.9403 140.002 71.5428 139.998 57.1453 139.998L57.1419 139.988ZM57.1899 111.868H107.751C110.327 111.868 110.255 111.868 110.357 109.24C110.409 107.987 110.042 107.702 108.813 107.706C80.6171 107.743 52.4215 107.737 24.226 107.733C23.7259 107.733 23.2155 107.771 22.7256 107.696C21.6466 107.531 20.9923 106.873 20.9341 105.781C20.8759 104.674 21.4925 103.975 22.5372 103.705C22.9689 103.595 23.4416 103.626 23.8937 103.626C27.9016 103.619 31.9095 103.626 35.9208 103.616C36.4072 103.616 37.0032 103.859 37.0581 102.924C37.2876 99.0152 37.565 95.1101 37.8768 91.205C37.9453 90.3486 37.5822 90.2596 36.8731 90.2596C27.3981 90.2767 17.9231 90.2801 8.44805 90.2527C7.69443 90.2527 7.42381 90.5165 7.28337 91.2016C6.50235 95.0313 5.7179 98.8611 4.86837 102.674C4.66969 103.561 4.97799 103.643 5.7179 103.629C7.85886 103.592 9.99981 103.616 12.1408 103.616C15.0525 103.616 16.0322 104.123 16.0527 105.644C16.0733 107.199 15.0936 107.733 12.2161 107.733C10.4383 107.733 8.66386 107.733 6.88601 107.733C4.23122 107.733 4.30316 107.733 4.20039 110.422C4.15586 111.631 4.48129 111.895 5.6768 111.892C22.849 111.847 40.0211 111.861 57.1933 111.861L57.1899 111.868ZM57.1385 103.623C62.1911 103.623 67.2472 103.605 72.2999 103.64C73.1391 103.647 73.4885 103.516 73.4063 102.554C73.0843 98.7446 72.8308 94.9286 72.5876 91.116C72.5465 90.4754 72.3376 90.239 71.6936 90.263C70.6008 90.3041 69.5081 90.2733 68.4153 90.2733C60.0365 90.2733 51.6611 90.2904 43.2822 90.2493C42.282 90.2459 41.9908 90.4959 41.936 91.5167C41.7579 95.0622 41.4873 98.6007 41.1755 102.139C41.0796 103.242 41.2029 103.691 42.5218 103.664C47.3929 103.564 52.264 103.623 57.1351 103.623H57.1385ZM93.6991 103.623C98.7552 103.623 103.811 103.609 108.867 103.636C109.666 103.64 109.864 103.479 109.679 102.65C108.84 98.8782 108.038 95.0998 107.298 91.3078C107.11 90.3486 106.631 90.2527 105.805 90.2527C96.6485 90.2801 87.4955 90.2698 78.3391 90.2698C77.1927 90.2698 76.6606 90.8636 76.7428 92.0511C76.9928 95.5486 77.2943 99.0426 77.4758 102.544C77.5238 103.468 77.8252 103.643 78.6679 103.636C83.6795 103.599 88.6876 103.619 93.6991 103.619V103.623ZM57.1522 86.1489C61.8417 86.1489 66.5347 86.1489 71.2243 86.1524C71.7963 86.1524 72.2348 86.2174 72.1594 85.3268C71.8443 81.5622 71.6045 77.7907 71.3784 74.0191C71.327 73.1388 71.0872 72.7962 70.1075 72.7997C61.5471 72.8442 52.9833 72.8373 44.4229 72.8065C43.5666 72.8065 43.2343 73.0086 43.1863 73.9061C42.9774 77.6331 42.7444 81.3601 42.4121 85.0768C42.3231 86.077 42.6691 86.1695 43.4912 86.1626C48.0437 86.1318 52.5997 86.1489 57.1522 86.1489ZM91.1368 86.1489C95.7339 86.1489 100.331 86.1284 104.928 86.1661C105.819 86.1729 106.216 86.1181 105.966 85.0322C105.103 81.271 104.315 77.4892 103.554 73.7074C103.421 73.036 103.191 72.8099 102.506 72.8134C93.7677 72.8339 85.0291 72.8305 76.2872 72.8168C75.6774 72.8168 75.3897 72.9127 75.4479 73.6492C75.7494 77.4584 76.02 81.271 76.2427 85.087C76.294 85.9811 76.6332 86.1763 77.4758 86.1695C82.0284 86.1284 86.5775 86.1489 91.13 86.1489H91.1368ZM8.40009 86.0633C8.6433 86.101 8.7769 86.1421 8.91049 86.1421C18.3752 86.1455 27.84 86.1352 37.3013 86.1695C38.1611 86.1695 38.2433 85.7756 38.2844 85.1247C38.5242 81.4012 38.7434 77.6776 39.062 73.9643C39.1408 73.0257 38.9181 72.7894 38.0035 72.8065C35.2733 72.8579 32.5432 72.8236 29.8131 72.8236C23.9897 72.8236 18.1663 72.8168 12.3394 72.8339C11.8633 72.8339 11.2296 72.5462 11.0514 73.4094C10.1848 77.6228 9.2873 81.8328 8.39666 86.0599L8.40009 86.0633ZM57.2139 68.6856C61.4033 68.6856 65.5927 68.6548 69.7821 68.7096C70.7241 68.7199 71.029 68.528 70.9434 67.5278C70.6179 63.7631 70.3679 59.995 70.1315 56.2235C70.0904 55.5521 69.8369 55.3911 69.2203 55.3946C61.2525 55.4083 53.2813 55.4083 45.3136 55.3946C44.6798 55.3946 44.4606 55.5761 44.4195 56.2372C44.1866 60.0087 43.9365 63.7802 43.6111 67.5415C43.522 68.5623 43.8646 68.7199 44.786 68.7096C48.9309 68.6616 53.0724 68.689 57.2173 68.689L57.2139 68.6856ZM25.8052 68.6856C29.9946 68.6856 34.184 68.6822 38.3735 68.6925C38.9969 68.6925 39.4696 68.737 39.521 67.8258C39.73 64.0543 40.0109 60.2862 40.3192 56.5181C40.3911 55.6343 40.1719 55.374 39.2504 55.3809C31.5087 55.4185 23.767 55.4151 16.0253 55.3843C15.145 55.3809 14.7716 55.5967 14.5969 56.5284C13.9083 60.1423 13.165 63.7494 12.3257 67.3325C12.0688 68.4287 12.1887 68.7301 13.374 68.7096C17.5188 68.6411 21.6637 68.6822 25.8052 68.6822V68.6856ZM88.7184 68.6856C92.9524 68.6856 97.1898 68.6616 101.424 68.7062C102.314 68.7164 102.503 68.4938 102.307 67.6305C101.492 63.9961 100.687 60.3547 99.9884 56.6963C99.7966 55.6891 99.4712 55.3706 98.4298 55.3774C90.7806 55.4254 83.128 55.4322 75.4753 55.3706C74.2935 55.3603 74.1702 55.7782 74.2524 56.7613C74.5504 60.3444 74.8313 63.931 75.0197 67.5209C75.0711 68.4801 75.3589 68.7164 76.2872 68.7062C80.4321 68.6582 84.577 68.6856 88.7184 68.6856ZM57.2652 131.739C51.5309 131.739 45.7931 131.739 40.0588 131.739C37.3047 131.739 37.3938 131.743 37.2704 134.463C37.2122 135.761 37.6781 135.894 38.7914 135.891C50.6266 135.853 62.4618 135.867 74.297 135.867C77.2703 135.867 77.2018 135.867 77.284 132.931C77.3148 131.815 76.9106 131.712 75.972 131.715C69.7342 131.753 63.4997 131.736 57.2618 131.736L57.2652 131.739ZM59.3719 121.915V119.051C59.3719 115.903 59.3719 115.941 56.2341 115.965C55.3743 115.972 55.1585 116.232 55.1722 117.054C55.2202 119.551 55.1894 122.052 55.1894 124.553C55.1894 127.779 55.1894 127.755 58.4642 127.636C59.1904 127.608 59.4028 127.382 59.3822 126.687C59.3411 125.097 59.3685 123.504 59.3685 121.915H59.3719Z" fill="white"/>
<path id="Vector_3" d="M57.2509 31.686C51.6193 31.6586 46.8544 26.856 46.9366 21.2929C47.0188 15.6853 51.6261 11.0849 57.2303 11.0164C62.7831 10.9478 67.6028 15.7402 67.6131 21.3409C67.6234 26.9382 62.8379 31.7168 57.2474 31.686H57.2509ZM57.2132 15.1578C53.839 15.2092 51.0335 18.0455 51.0575 21.3786C51.0849 24.7698 54.0583 27.6713 57.4016 27.5685C60.7757 27.4623 63.5607 24.5712 63.4819 21.2587C63.3997 17.8777 60.5531 15.1099 57.2132 15.1578Z" fill="white"/>
<path id="Vector_4" d="M59.3888 39.2495C59.3443 39.849 59.334 40.3971 59.2552 40.9349C59.0908 42.0379 58.4023 42.6374 57.3095 42.6511C56.2168 42.6648 55.5008 42.0962 55.3159 40.9931C55.1275 39.8661 55.1446 38.7289 55.3056 37.595C55.4632 36.4783 56.1928 35.8788 57.2513 35.8617C58.3132 35.8446 59.0634 36.4269 59.2415 37.5402C59.334 38.1191 59.3477 38.7152 59.3888 39.2495Z" fill="white"/>
<path id="Vector_5" d="M39.3744 19.3405C39.8745 19.3405 40.378 19.2994 40.8747 19.3473C42.036 19.4638 42.7211 20.1489 42.7622 21.2965C42.7999 22.3789 42.2107 23.1086 41.1145 23.3107C39.9464 23.5265 38.7612 23.5265 37.5931 23.3072C36.4935 23.0983 35.9317 22.3584 35.9728 21.2759C36.0173 20.1969 36.6305 19.5049 37.7404 19.3679C38.2816 19.2994 38.8297 19.3028 39.3744 19.2754C39.3744 19.2959 39.3744 19.3199 39.3744 19.3405Z" fill="white"/>
<path id="Vector_6" d="M75.1674 19.2676C75.7566 19.3053 76.3526 19.2984 76.935 19.3909C77.9763 19.5587 78.5381 20.2473 78.5861 21.2612C78.634 22.2786 78.1408 23.0322 77.1131 23.2754C75.9073 23.5598 74.6707 23.5221 73.4546 23.32C72.355 23.135 71.7659 22.3951 71.7967 21.316C71.8275 20.1719 72.4989 19.4697 73.667 19.3532C74.1637 19.3018 74.6673 19.3464 75.1674 19.3464C75.1674 19.3224 75.1674 19.295 75.1674 19.271V19.2676Z" fill="white"/>
<path id="Vector_7" d="M43.6481 5.69729C44.8881 5.70414 47.584 8.32809 47.6422 9.58526C47.7107 11.0959 45.9945 12.2263 44.6791 11.4453C43.5419 10.7705 42.593 9.79764 41.8908 8.68435C41.0549 7.36552 42.0963 5.69044 43.6481 5.69729Z" fill="white"/>
<path id="Vector_8" d="M68.923 11.7216C68.166 11.6086 67.5357 11.2866 67.1726 10.5809C66.806 9.87183 66.8369 9.15589 67.3164 8.5256C68.0358 7.58358 68.8442 6.70322 69.8239 6.03866C71.1325 5.15145 72.8315 6.02496 72.9309 7.5733C73.0165 8.92981 70.2795 11.7661 68.9264 11.725L68.923 11.7216Z" fill="white"/>
<path id="Vector_9" d="M47.6466 33.0222C47.6226 34.3 44.9267 36.9993 43.6901 37.0095C42.9125 37.013 42.272 36.7081 41.8883 35.9956C41.4875 35.2523 41.467 34.461 42.0116 33.8238C42.7481 32.9674 43.56 32.1659 44.4129 31.4191C45.0501 30.8607 45.8379 30.8744 46.5778 31.2786C47.2766 31.6623 47.5644 32.3097 47.6432 33.0188L47.6466 33.0222Z" fill="white"/>
<path id="Vector_10" d="M72.9359 35.0509C72.8983 36.6061 71.2198 37.5653 69.8975 36.7089C68.8287 36.0169 67.897 35.0989 67.2222 34.0198C66.4069 32.7147 67.4517 31.002 68.976 31.002C70.2914 31.002 72.9668 33.7389 72.9359 35.0509Z" fill="white"/>
</g>
</svg>
