<svg width="224" height="160" viewBox="0 0 224 160" fill="none" xmlns="http://www.w3.org/2000/svg">
<g id="Mask group">
<mask id="mask0_892_140" style="mask-type:alpha" maskUnits="userSpaceOnUse" x="0" y="0" width="224" height="160">
<rect id="Rectangle 3779" width="224" height="160" fill="#50A03B"/>
</mask>
<g mask="url(#mask0_892_140)">
<g id="Layer 1" opacity="0.2">
<path id="Vector" d="M0.152567 38C8.02415 38.3896 15.4332 40.5818 22.4747 44.1273C23.4946 44.6419 24.4996 45.6026 25.5106 45.6026C26.5216 45.6026 27.5237 44.6389 28.5466 44.1273C35.419 40.6859 42.6295 38.4402 50.3439 38.0654C60.0596 37.5925 65.3311 43.7258 66.5229 50.1297C67.2878 54.2433 66.9854 58.2469 66.1167 62.2534C64.8923 67.8899 62.7546 73.1963 60.1367 78.3123C59.7098 79.1452 59.7572 79.7281 60.1782 80.5283C63.5166 86.8965 65.9537 93.5741 66.7601 100.766C67.1989 104.663 67.11 108.541 65.8855 112.319C63.5492 119.544 58.3222 123.17 50.5248 122.979C42.4486 122.783 35.0959 120.258 28.3569 115.891C27.0523 115.046 26.1303 115.008 24.7279 115.781C17.8792 119.562 10.5946 122.09 2.76753 122.854C-0.888083 123.211 -4.48144 123.009 -7.81686 121.272C-12.2759 118.949 -14.4284 114.957 -15.4068 110.24C-16.5542 104.71 -15.8604 99.2463 -14.464 93.8507C-13.2365 89.1035 -11.4013 84.5913 -9.04725 80.2963C-8.68555 79.6359 -8.70927 79.1243 -9.04133 78.4789C-12.0388 72.6312 -14.4076 66.5574 -15.5372 60.0434C-16.2014 56.2362 -16.2043 52.4557 -15.1933 48.693C-13.6427 42.9227 -8.46615 38.6246 -2.42682 38.1576C-1.57889 38.0922 -0.730948 38.0535 0.152567 38ZM27.7757 108.339C28.1167 108.128 28.3005 108.024 28.4754 107.905C39.1695 100.704 47.4503 91.2808 53.8869 80.1535C54.1893 79.63 54.0588 79.3028 53.792 78.8715C52.271 76.4146 50.6285 74.044 48.8348 71.7805C44.3728 66.1469 39.1873 61.251 33.5393 56.843C32.9434 56.376 32.8248 56.0666 33.3496 55.4717C34.0078 54.7222 34.5978 53.9102 35.1641 53.0892C35.5021 52.5985 35.7333 52.4884 36.2611 52.9048C43.8866 58.9221 50.756 65.6591 56.1757 73.7912C56.3417 74.0381 56.407 74.4247 56.828 74.4456C58.426 71.0964 59.8017 67.6698 60.786 64.0976C61.9838 59.7519 62.7843 55.3766 61.7644 50.8376C60.8127 46.6139 57.6967 43.6365 53.4481 43.0268C50.3172 42.5776 47.2457 43.0089 44.2068 43.6246C37.0378 45.0791 30.4648 47.9941 24.3425 51.9857C13.4942 59.0619 4.161 67.6728 -2.77371 78.7436C-3.18878 79.4039 -3.16803 79.862 -2.78557 80.5134C2.77643 90.0077 9.71113 98.3064 18.4366 105.04C19.0029 105.478 19.0029 105.742 18.57 106.248C17.9444 106.977 17.3396 107.735 16.8297 108.547C16.3879 109.249 16.0855 109.264 15.4243 108.75C7.34521 102.444 0.704021 94.8501 -4.77199 86.2035C-5.11591 85.6591 -5.45686 85.1089 -5.88973 84.4218C-7.02229 86.7061 -7.93248 88.8745 -8.68851 91.1053C-10.5682 96.6585 -11.8045 102.301 -10.9892 108.226C-10.0523 115.04 -5.49541 118.779 1.2792 118.202C8.77721 117.563 15.7623 115.222 22.3709 111.67C22.8126 111.432 23.0202 111.192 23.0143 110.659C22.9905 107.099 22.9935 103.538 23.0113 99.978C23.0113 99.4396 22.863 99.2255 22.2997 99.1065C19.9486 98.6038 17.8555 97.5419 16.0499 95.9387C11.4307 91.837 9.97796 85.7484 12.1986 79.3772C14.36 73.1755 18.5937 68.5443 23.6309 64.5586C25.3387 63.2082 25.3802 63.2142 27.0672 64.5408C31.9621 68.3897 36.095 72.8751 38.3661 78.8031C42.3211 89.1362 36.1128 97.5182 28.3746 99.0886C27.8232 99.2017 27.7609 99.4545 27.7639 99.9126C27.7757 102.655 27.7698 105.4 27.7698 108.345L27.7757 108.339ZM56.8724 84.3801C50.1512 95.3974 41.8053 104.695 31.1112 111.888C32.0184 112.426 32.7359 112.878 33.4771 113.291C39.4393 116.614 45.784 118.476 52.6476 118.039C56.3091 117.807 59.0397 115.948 60.6704 112.584C61.6547 110.555 62.1024 108.393 62.218 106.153C62.4404 101.807 61.6962 97.5955 60.4569 93.4521C59.5378 90.3766 58.3845 87.3992 56.8724 84.3772V84.3801ZM-5.69108 74.6657C1.36518 63.9875 10.4257 55.674 20.8855 48.6246C19.3705 47.7561 17.9088 47.0869 16.4116 46.5098C10.3901 44.1838 4.30627 42.2564 -2.30823 43.0178C-6.29887 43.4789 -9.49494 46.0428 -10.6067 49.9393C-11.1493 51.843 -11.3717 53.7823 -11.2649 55.7603C-10.9062 62.423 -8.53731 68.4878 -5.69405 74.6687L-5.69108 74.6657ZM27.7757 89.8114C27.7757 90.8882 27.7757 91.9619 27.7757 93.0387C27.7757 94.4932 27.7935 94.5051 29.1336 93.928C33.6402 91.9857 35.8282 87.1285 34.414 81.9619C33.0086 76.8251 29.6673 73.006 25.7775 69.5854C25.4335 69.282 25.229 69.3712 24.9532 69.6419C24.2624 70.3141 23.5272 70.9387 22.8571 71.6258C19.7796 74.7936 17.1884 78.2617 16.1893 82.6936C15.0834 87.5925 17.5797 92.3843 22.0774 94.0529C22.78 94.3147 23.038 94.2998 23.0202 93.4313C22.9698 90.9477 23.0202 88.461 22.9905 85.9774C22.9816 85.3438 23.1744 85.1327 23.8059 85.1594C24.8762 85.204 25.9494 85.1981 27.0227 85.1594C27.5979 85.1386 27.8054 85.323 27.7876 85.9149C27.7491 87.2118 27.7757 88.5116 27.7757 89.8084V89.8114Z" fill="#0D0D0D"/>
</g>
</g>
</g>
</svg>
